<?xml version="1.0" standalone="no"?>
<!DOCTYPE svg PUBLIC "-//W3C//DTD SVG 20010904//EN"
 "http://www.w3.org/TR/2001/REC-SVG-20010904/DTD/svg10.dtd">
<svg version="1.0" xmlns="http://www.w3.org/2000/svg"
 width="1008.000000pt" height="1008.000000pt" viewBox="0 0 1008.000000 1008.000000"
 preserveAspectRatio="xMidYMid meet">
<metadata>
Created by potrace 1.14, written by Peter Selinger 2001-2017
</metadata>
<g transform="translate(0.000000,1008.000000) scale(0.100000,-0.100000)"
fill="#000000" stroke="none">
<path d="M4538 10075 c-1 -2 -50 -6 -108 -9 -58 -4 -116 -8 -130 -10 -14 -3
-47 -7 -75 -10 -76 -9 -137 -17 -165 -22 -14 -3 -41 -7 -60 -9 -19 -2 -36 -4
-37 -5 -4 -4 -13 -5 -73 -15 -30 -5 -57 -9 -60 -10 -3 -1 -21 -5 -40 -10 -19
-5 -42 -10 -50 -11 -37 -6 -76 -15 -90 -21 -8 -3 -22 -7 -30 -8 -22 -2 -114
-28 -258 -71 -7 -2 -14 -4 -17 -4 -3 0 -24 -8 -47 -16 -24 -9 -47 -17 -53 -18
-5 -2 -17 -6 -25 -9 -8 -3 -71 -27 -140 -53 -69 -26 -146 -57 -172 -70 -27
-14 -48 -22 -48 -20 0 5 -330 -160 -410 -205 -25 -14 -96 -56 -158 -95 -62
-38 -131 -79 -152 -92 -22 -13 -40 -28 -40 -33 0 -5 -5 -9 -10 -9 -9 0 -66
-36 -80 -50 -3 -3 -18 -14 -33 -23 -16 -10 -36 -24 -45 -32 -9 -7 -57 -44
-107 -81 -49 -37 -97 -74 -106 -83 -9 -9 -26 -23 -39 -31 -12 -8 -28 -20 -35
-27 -7 -6 -34 -30 -61 -53 -207 -177 -427 -396 -578 -575 -32 -38 -63 -71 -67
-73 -5 -2 -9 -8 -9 -14 0 -6 -12 -25 -28 -42 -15 -18 -36 -44 -47 -60 -11 -15
-30 -40 -42 -54 -13 -15 -23 -30 -23 -34 0 -4 -6 -13 -13 -20 -30 -32 -237
-350 -237 -366 0 -3 -6 -13 -14 -21 -7 -9 -31 -50 -52 -91 -21 -41 -42 -78
-47 -81 -5 -3 -8 -9 -8 -13 1 -3 -12 -33 -29 -66 -17 -33 -30 -63 -31 -67 0
-5 -6 -15 -13 -23 -7 -8 -20 -33 -28 -55 -9 -22 -27 -65 -41 -95 -54 -119 -78
-183 -73 -196 4 -11 38 -24 91 -36 6 -1 33 -7 60 -13 91 -22 287 -15 355 12 8
3 20 7 25 7 46 5 166 62 249 118 98 67 168 143 263 288 24 36 46 70 51 75 4 6
17 25 27 43 11 17 23 32 27 32 4 0 7 4 5 8 -2 9 20 42 61 92 12 15 22 31 22
34 0 3 8 14 18 24 9 10 24 29 32 42 8 13 23 32 33 42 9 10 17 21 17 24 0 3 6
11 13 18 6 8 23 28 37 45 144 179 387 427 555 565 33 28 62 53 65 56 9 11 203
155 265 197 125 84 298 185 433 253 153 76 437 198 477 204 6 1 15 4 20 7 10
6 61 22 80 24 6 1 24 7 40 14 17 7 42 15 58 18 15 3 30 10 33 14 3 5 9 7 14 4
5 -3 21 0 37 6 28 11 46 16 93 25 14 3 59 14 100 24 41 10 91 22 110 25 19 3
54 10 76 15 23 5 56 12 75 14 19 3 45 7 59 10 14 3 43 7 65 11 22 3 54 7 70
10 41 7 121 16 175 20 25 2 77 7 115 10 110 10 497 12 528 4 19 -5 25 -4 21 3
-5 8 -1 9 12 4 10 -5 44 -10 74 -12 66 -5 145 -12 145 -14 0 -2 78 -11 113
-12 17 -1 32 -6 32 -11 0 -4 4 -6 9 -2 6 3 43 -1 83 -9 40 -8 91 -18 113 -22
22 -4 45 -8 50 -10 36 -9 147 -37 180 -46 22 -5 45 -11 50 -12 6 -2 17 -6 25
-9 8 -3 42 -13 75 -23 33 -10 114 -37 180 -62 112 -41 141 -53 252 -103 23
-11 47 -19 52 -19 6 0 11 -5 11 -12 0 -6 3 -8 7 -5 3 4 13 1 22 -7 9 -8 20
-15 24 -14 4 0 44 -19 87 -42 44 -22 83 -40 86 -40 4 1 10 -2 13 -8 3 -5 29
-22 56 -37 28 -15 59 -33 70 -39 62 -35 304 -197 366 -245 26 -20 59 -45 74
-55 14 -11 35 -27 45 -35 10 -9 32 -26 48 -38 16 -12 40 -33 55 -47 14 -13 36
-31 47 -39 56 -39 420 -388 420 -402 0 -2 10 -15 23 -27 29 -31 96 -108 127
-148 14 -18 30 -37 35 -44 6 -6 26 -31 45 -56 19 -25 38 -46 42 -48 5 -2 8
-10 8 -18 0 -8 5 -14 10 -14 6 0 10 -6 10 -14 0 -8 4 -16 9 -18 9 -3 145 -210
177 -268 10 -19 21 -37 24 -40 11 -11 43 -70 110 -205 66 -132 64 -146 -7 -40
-88 130 -344 395 -382 395 -6 0 -11 4 -11 9 0 5 -8 11 -17 14 -10 4 -37 17
-59 31 -91 54 -249 81 -364 63 -19 -3 -53 -8 -76 -12 -30 -5 -44 -3 -55 8
-175 190 -1019 1040 -1026 1034 -3 -3 3 -30 13 -59 10 -29 18 -55 19 -58 0 -3
3 -10 7 -16 4 -6 9 -23 12 -38 3 -15 9 -33 15 -39 5 -7 10 -15 10 -19 1 -5 1
-9 2 -10 0 -2 2 -10 4 -18 2 -8 25 -76 51 -150 26 -74 47 -141 47 -147 0 -7 4
-13 9 -13 4 0 7 -3 6 -7 0 -5 1 -15 5 -23 6 -17 31 -92 32 -100 1 -3 4 -15 8
-27 l8 -21 62 26 c50 21 78 26 147 27 131 0 137 -4 451 -318 308 -306 397
-404 541 -588 15 -18 41 -51 57 -73 17 -21 31 -42 31 -47 0 -4 6 -14 13 -21
42 -43 171 -273 230 -408 54 -125 126 -366 133 -445 1 -16 3 -30 4 -30 3 0 6
-22 16 -110 11 -99 7 -500 -6 -500 0 0 -3 -24 -5 -53 -3 -29 -7 -57 -10 -62
-3 -5 -1 -11 3 -14 5 -3 19 17 32 44 13 28 27 50 32 50 5 0 7 4 3 9 -3 5 -1
12 5 16 5 3 10 15 10 26 0 10 4 19 9 19 9 0 81 214 87 259 2 14 6 49 10 76 10
82 11 159 2 178 -5 10 -5 17 1 17 5 0 7 9 4 20 -11 42 27 11 48 -40 l11 -25
11 25 c22 53 14 375 -13 495 -5 22 -12 54 -15 70 -7 34 -7 34 -25 95 -7 25
-13 48 -12 53 1 4 -3 7 -8 7 -6 0 -10 8 -10 18 0 34 -114 293 -132 300 -4 2
-6 8 -2 13 6 11 44 12 44 2 0 -11 51 -34 61 -28 4 3 13 -11 19 -30 6 -19 15
-35 19 -35 4 0 8 -6 8 -14 0 -8 12 -42 27 -75 15 -34 29 -69 31 -79 3 -9 23
-68 45 -131 22 -62 37 -117 34 -122 -3 -5 0 -9 5 -9 6 0 10 -3 9 -7 0 -5 1
-15 5 -23 3 -8 8 -26 10 -40 3 -14 13 -52 22 -85 20 -70 47 -189 60 -265 3
-14 10 -51 15 -83 6 -32 13 -74 16 -95 3 -20 7 -48 9 -62 5 -31 14 -102 20
-153 3 -21 8 -43 11 -49 5 -7 2 -8 -6 -3 -9 5 -11 4 -6 -4 10 -16 19 -146 20
-293 1 -65 5 -118 9 -118 5 0 5 -4 2 -10 -3 -5 -8 -76 -10 -157 -3 -82 -7
-168 -10 -193 -2 -25 -7 -72 -10 -105 -15 -151 -53 -361 -101 -551 -13 -55
-26 -108 -28 -119 -1 -11 -8 -30 -15 -43 -6 -12 -9 -27 -6 -32 3 -6 1 -10 -6
-10 -7 0 -10 -3 -7 -6 20 -19 -251 -678 -284 -692 -5 -2 -8 -11 -8 -21 0 -9
-4 -21 -9 -27 -5 -5 -20 -29 -33 -54 -49 -88 -70 -124 -104 -177 -19 -29 -34
-58 -34 -63 0 -6 -3 -10 -8 -10 -4 0 -16 -17 -27 -37 -11 -20 -25 -41 -30 -47
-6 -6 -22 -29 -35 -51 -25 -40 -43 -65 -68 -91 -7 -8 -11 -14 -7 -14 4 0 0 -6
-7 -13 -7 -8 -22 -26 -33 -42 -52 -72 -52 -72 -121 -2 -123 124 -296 267 -323
267 -5 0 -11 4 -13 8 -14 36 -451 250 -520 255 -10 1 -18 5 -18 10 0 5 -6 7
-14 4 -7 -3 -18 -1 -22 3 -5 5 -18 11 -29 13 -11 2 -38 9 -60 15 -22 6 -53 14
-70 17 -16 3 -54 11 -84 20 -30 8 -58 12 -63 9 -4 -3 -8 -2 -8 3 0 4 -10 8
-22 9 -13 0 -43 4 -68 8 -79 13 -104 16 -150 21 -25 2 -59 6 -75 9 -48 8 -268
18 -425 19 -179 0 -378 -11 -530 -29 -25 -3 -70 -8 -100 -10 -30 -2 -66 -6
-80 -8 -14 -3 -50 -7 -80 -10 -30 -3 -64 -8 -76 -10 -21 -4 -107 -16 -154 -21
-45 -5 -114 -15 -142 -20 -24 -5 -177 -16 -203 -16 -93 3 -273 12 -315 16 -30
2 -82 7 -114 10 -68 5 -140 13 -176 19 -14 3 -41 7 -60 10 -98 15 -123 19
-220 43 -132 31 -117 27 -170 43 -25 8 -47 14 -50 15 -52 14 -116 37 -126 46
-8 6 -14 9 -14 6 0 -15 -264 112 -340 164 -74 50 -166 150 -224 242 -17 27
-17 28 1 19 152 -80 741 -294 843 -306 24 -3 60 -9 140 -21 87 -14 303 -8 405
11 47 9 167 59 210 89 67 45 158 139 189 194 5 9 12 18 16 21 4 3 32 50 63
105 147 261 151 301 47 415 -56 61 -83 133 -96 250 -12 114 -8 168 17 246 5
17 12 41 14 53 3 11 7 31 10 43 28 130 39 361 21 478 -24 159 -80 319 -147
416 -16 23 -29 47 -29 53 0 6 -4 11 -8 11 -4 0 -15 12 -24 28 -24 40 -146 161
-216 215 -112 86 -295 194 -395 232 -162 62 -251 117 -332 207 -82 92 -119
153 -198 328 -27 61 -57 153 -52 161 3 4 1 9 -3 11 -8 3 -43 110 -45 136 -2
34 -98 -20 -169 -96 -63 -68 -138 -183 -147 -227 -1 -5 -10 -18 -18 -27 -9
-10 -13 -18 -9 -18 4 0 2 -9 -4 -21 -11 -20 -18 -44 -25 -84 -2 -11 -7 -38
-12 -60 -10 -42 -9 -175 1 -201 5 -12 -1 -14 -29 -10 -91 15 -205 104 -247
195 -32 68 -30 246 4 376 5 22 12 47 13 56 2 10 11 31 19 48 21 40 11 39 -72
-6 -37 -20 -80 -44 -97 -52 -16 -9 -34 -22 -38 -28 -4 -7 -13 -13 -19 -13 -11
0 -107 -67 -168 -117 -39 -32 -250 -242 -295 -294 -17 -19 -53 -61 -80 -94
-28 -33 -52 -62 -56 -65 -3 -3 -18 -23 -34 -45 -17 -22 -32 -42 -35 -45 -4 -3
-19 -23 -35 -45 -17 -22 -32 -42 -35 -45 -4 -3 -21 -29 -40 -57 -18 -29 -37
-53 -42 -53 -4 0 -7 -4 -5 -8 1 -5 -8 -21 -21 -38 -23 -30 -151 -230 -175
-274 -7 -14 -40 -70 -72 -125 -78 -135 -255 -482 -255 -500 0 -8 -4 -15 -10
-15 -5 0 -10 -9 -10 -20 0 -11 -4 -20 -10 -20 -5 0 -9 -3 -8 -7 1 -5 -4 -21
-11 -38 -7 -16 -26 -66 -43 -110 -16 -44 -34 -89 -39 -100 -4 -11 -24 -74 -45
-140 -20 -66 -39 -127 -42 -135 -3 -8 -6 -24 -8 -35 -3 -24 -11 -60 -19 -85
-12 -39 -52 -269 -60 -350 -6 -59 -17 -262 -17 -315 0 -67 11 -274 16 -305 3
-14 7 -50 11 -81 3 -31 8 -67 11 -80 3 -13 7 -35 10 -49 22 -117 73 -324 91
-370 3 -8 7 -21 9 -28 4 -19 84 -230 106 -282 42 -96 176 -358 188 -370 3 -3
14 -21 24 -40 44 -80 165 -263 258 -390 18 -25 36 -49 40 -55 4 -5 40 -50 80
-100 200 -250 425 -473 693 -688 60 -48 263 -190 317 -222 9 -5 38 -23 65 -39
111 -67 276 -156 289 -156 8 0 14 -4 14 -10 0 -5 4 -10 10 -10 5 0 38 -13 72
-29 161 -73 347 -147 361 -143 4 1 7 -3 7 -9 0 -5 4 -8 10 -4 5 3 17 1 27 -4
17 -9 116 -43 138 -47 6 -1 42 -11 80 -22 60 -18 96 -28 215 -56 13 -3 64 -14
195 -42 11 -2 39 -6 62 -8 24 -3 46 -7 50 -9 5 -3 31 -8 58 -11 28 -3 62 -8
77 -11 14 -3 48 -7 75 -9 26 -3 86 -8 133 -12 111 -10 513 -11 615 -1 186 17
265 28 400 53 112 21 160 32 160 34 0 1 9 3 20 4 11 2 58 13 105 25 47 13 92
24 100 26 8 2 40 12 70 23 30 11 59 19 63 20 8 0 149 49 182 62 11 5 63 25
115 46 126 49 354 150 516 230 73 35 137 64 143 64 6 0 11 4 11 9 0 5 12 14
28 20 34 13 212 111 222 122 3 3 31 20 63 37 55 31 326 209 337 222 3 3 30 24
60 45 30 22 62 47 71 55 9 8 29 25 45 37 16 12 39 30 50 40 12 10 46 38 75 63
97 81 142 123 289 270 130 131 277 289 327 355 5 6 24 30 43 55 19 25 37 47
40 50 12 11 149 198 175 240 16 24 33 49 39 56 6 6 20 27 31 47 11 20 23 37
27 37 5 0 8 4 8 8 0 5 32 62 71 128 67 111 239 442 266 509 6 17 37 91 68 165
69 166 105 267 97 274 -3 3 -1 6 4 6 6 0 16 24 23 53 8 28 16 57 20 62 3 6 6
15 8 20 1 6 21 75 43 155 23 80 43 154 46 165 2 11 6 31 9 45 16 70 22 97 31
150 7 35 10 52 20 100 9 38 13 70 20 125 3 28 7 57 10 65 3 8 7 38 9 65 2 28
6 62 8 76 21 115 30 661 14 864 -16 202 -30 335 -42 390 -2 11 -7 43 -10 71
-5 48 -8 66 -20 124 -2 14 -7 41 -10 60 -3 19 -8 42 -10 50 -2 8 -7 27 -10 43
-3 15 -7 39 -10 55 -3 15 -20 79 -36 142 -17 63 -32 120 -33 125 -6 26 -59
195 -73 235 -10 25 -18 50 -19 56 -3 20 -107 279 -115 288 -5 6 -9 16 -9 24 0
16 -165 354 -191 393 -10 14 -16 29 -12 33 3 3 1 6 -5 6 -7 0 -12 7 -12 15 0
8 -4 15 -10 15 -5 0 -10 5 -10 11 0 21 -214 360 -232 367 -4 2 -8 8 -8 12 0 8
-103 151 -143 200 -7 8 -28 35 -47 60 -19 24 -39 50 -45 56 -5 7 -28 34 -50
60 -22 27 -54 63 -72 81 -17 18 -29 33 -27 33 12 0 -264 278 -390 394 -49 44
-96 88 -105 96 -9 8 -41 35 -71 60 -30 25 -60 49 -67 55 -6 5 -26 21 -44 35
-18 14 -38 31 -45 38 -7 6 -16 12 -19 12 -4 0 -22 12 -41 28 -47 38 -78 61
-169 123 -44 29 -83 58 -87 64 -4 5 -8 6 -8 2 0 -4 -15 3 -32 16 -41 31 -276
167 -288 167 -4 0 -10 3 -12 8 -1 4 -37 24 -78 44 -128 63 -245 119 -245 118
0 -1 -13 4 -30 11 -16 7 -32 13 -35 13 -3 1 -9 4 -15 8 -12 7 -250 99 -268
102 -6 2 -25 9 -42 15 -16 7 -39 15 -50 17 -29 7 -38 10 -57 18 -9 4 -25 9
-35 11 -10 2 -18 4 -18 5 0 1 -11 3 -25 6 -14 2 -32 7 -40 11 -8 3 -19 7 -25
8 -5 2 -55 14 -110 29 -55 14 -111 28 -125 30 -14 3 -36 8 -50 11 -14 3 -41 8
-60 11 -19 3 -42 8 -50 11 -8 3 -28 7 -45 8 -16 2 -30 4 -30 5 0 2 -29 7 -85
15 -25 4 -54 8 -65 10 -11 2 -60 8 -110 14 -49 7 -101 14 -115 16 -14 2 -61 7
-105 10 -44 3 -100 8 -125 11 -52 6 -646 14 -652 9z m-488 -185 c25 -25 25
-51 0 -72 -23 -20 -55 -16 -85 12 -23 22 -60 26 -71 8 -7 -11 -6 -70 1 -113 8
-47 18 -65 34 -61 70 19 81 15 69 -21 -3 -8 -5 -8 -48 -16 -30 -5 -30 -11 -8
-107 10 -41 21 -88 23 -104 10 -53 23 -66 64 -66 27 0 41 -5 45 -16 4 -11 2
-15 -8 -11 -8 3 -17 3 -20 -1 -4 -3 -14 -7 -24 -9 -9 -1 -30 -5 -47 -7 -33 -5
-69 -13 -72 -16 -2 -2 -7 -4 -13 -5 -5 -1 -11 -3 -12 -4 -2 -1 -18 -4 -35 -7
-39 -5 -47 20 -11 32 45 14 47 30 18 140 -15 57 -26 104 -23 104 2 0 -1 9 -7
20 -8 16 -18 19 -41 15 -21 -4 -31 -1 -35 10 -9 22 1 29 48 34 3 1 6 22 6 49
-2 109 37 179 117 217 45 21 111 19 135 -5z m1914 -11 c2 -2 1 -24 -4 -49 -5
-25 -11 -65 -15 -90 -3 -25 -14 -90 -25 -145 -23 -124 -28 -148 -35 -208 -7
-47 -6 -47 24 -53 27 -6 44 -23 24 -24 -162 -8 -172 -7 -175 14 -2 13 -9 19
-18 17 -8 -2 -43 -5 -78 -6 -51 -2 -72 2 -110 22 -25 13 -52 32 -59 41 -44 55
-55 147 -25 207 19 38 27 46 85 79 42 25 56 28 110 24 38 -2 79 -12 105 -26
23 -12 44 -22 46 -22 5 0 20 88 21 122 0 15 4 30 8 34 7 7 -30 44 -45 44 -4 0
-8 6 -8 13 0 10 22 13 85 12 46 -1 86 -3 89 -6z m-2408 -96 c10 -25 73 -230
79 -257 1 -6 4 -18 7 -26 3 -8 11 -35 18 -60 7 -25 21 -70 31 -100 17 -54 19
-55 55 -55 57 0 52 -21 -8 -35 -29 -7 -83 -24 -120 -37 -84 -29 -92 -29 -78
-3 6 11 19 20 29 20 11 0 21 6 23 13 7 17 -3 87 -11 87 -4 0 -7 8 -8 18 -1 11
-11 47 -22 82 -12 35 -21 71 -21 80 0 9 -3 20 -7 24 -5 4 -8 11 -8 14 -1 4
-11 40 -24 79 -22 69 -25 73 -50 68 -14 -2 -32 0 -40 4 -11 7 -6 13 18 25 18
10 40 23 49 31 52 42 67 54 72 55 3 0 10 -12 16 -27z m1175 7 c1 -3 2 -18 4
-35 4 -50 5 -51 21 -23 27 50 88 65 126 31 29 -26 5 -85 -37 -88 -5 -1 -23 5
-38 13 -25 12 -31 11 -47 -3 -15 -14 -17 -29 -14 -117 5 -101 16 -137 44 -133
22 3 62 -14 56 -24 -3 -5 -38 -9 -78 -9 -40 0 -76 -1 -80 -2 -8 -2 -90 -3
-109 -1 -19 2 9 28 36 35 14 4 25 11 26 16 2 17 1 70 -1 73 -7 10 -4 67 4 67
6 0 5 5 -2 12 -7 7 -12 23 -12 38 0 28 -13 52 -26 51 -5 0 -18 2 -28 5 -15 5
-9 11 32 31 29 14 60 35 70 48 15 20 50 30 53 15z m539 -36 c58 -30 100 -88
100 -135 0 -18 -5 -20 -42 -15 -37 5 -138 13 -228 19 -20 2 -25 -3 -25 -23 -1
-40 16 -83 44 -111 44 -44 95 -54 171 -32 85 25 89 -5 7 -47 -82 -43 -205 -33
-272 23 -38 31 -71 90 -60 107 4 6 2 10 -4 10 -10 0 -6 47 10 97 14 43 70 95
124 114 51 18 135 15 175 -7z m-858 -30 c38 -20 66 -49 79 -83 12 -30 8 -33
-38 -37 -120 -9 -180 -15 -198 -18 -11 -3 -25 -5 -32 -5 -17 -1 -20 -32 -6
-61 14 -29 63 -87 63 -75 0 4 7 2 15 -5 24 -20 101 -14 148 12 27 16 50 22 62
18 18 -6 16 -10 -15 -40 -70 -65 -173 -93 -259 -69 -53 15 -115 74 -126 121
-12 51 -12 102 -1 117 6 8 9 16 7 18 -6 8 54 83 67 83 6 0 12 4 12 8 0 7 47
25 95 37 25 6 98 -6 127 -21z m2113 -16 c39 -11 75 -21 80 -22 6 -1 20 -7 32
-14 12 -7 27 -12 33 -12 17 0 182 -80 197 -96 7 -7 23 -21 36 -31 88 -69 125
-213 82 -319 -70 -176 -241 -229 -442 -137 -29 13 -56 24 -60 24 -5 0 -15 7
-23 14 -8 7 -19 14 -25 14 -17 2 -80 24 -85 30 -3 4 -38 17 -77 31 -72 23 -91
43 -54 55 10 3 29 1 42 -3 25 -10 69 3 69 20 0 4 11 31 25 60 14 28 25 58 25
65 0 7 5 13 10 13 6 0 9 3 8 8 -3 9 72 203 84 217 22 26 -11 65 -57 65 -18 0
-27 14 -19 33 6 16 12 16 119 -15z m-3254 -18 c12 -7 19 -21 19 -38 0 -35 -10
-49 -43 -61 -50 -19 -96 24 -78 72 14 36 61 48 102 27z m-285 -150 c36 -14 72
-54 80 -88 4 -15 11 -32 16 -39 5 -7 5 -14 -2 -18 -6 -3 -8 -10 -5 -15 8 -13
-19 -72 -46 -102 -30 -32 -108 -68 -147 -68 -40 0 -48 24 -14 41 15 8 37 25
50 39 44 48 8 155 -59 179 -41 14 -131 -14 -143 -44 -3 -10 193 -417 208 -432
2 -2 22 4 46 12 52 18 60 19 60 1 0 -15 -22 -36 -42 -40 -7 -1 -30 -10 -52
-19 -21 -9 -42 -17 -47 -17 -5 0 -9 -5 -9 -11 0 -5 -4 -7 -10 -4 -5 3 -10 1
-10 -5 0 -6 -4 -9 -9 -6 -5 4 -11 3 -13 -1 -1 -5 -23 -19 -46 -32 -33 -17 -47
-20 -55 -12 -9 9 -3 19 22 40 41 35 39 46 -21 158 -23 43 -43 84 -44 91 -2 7
-7 19 -13 26 -6 7 -27 44 -47 82 -51 97 -54 100 -109 87 -25 -6 -45 -9 -45 -7
0 1 -3 9 -6 18 -3 9 -1 16 5 16 18 0 265 121 269 131 2 5 11 9 21 9 9 0 21 4
27 9 16 16 108 39 136 35 15 -2 39 -9 54 -14z m349 -38 c2 -11 8 -29 13 -39 5
-10 26 -67 47 -128 20 -60 42 -116 48 -123 7 -9 23 -12 44 -9 50 9 43 -19 -9
-34 -24 -7 -46 -12 -50 -11 -5 1 -8 -2 -8 -7 0 -5 -14 -11 -31 -15 -17 -3 -46
-13 -64 -22 -33 -15 -55 -13 -55 7 0 5 6 9 13 9 7 0 23 9 35 20 l22 21 -21 52
c-11 28 -27 72 -35 97 -29 87 -34 93 -76 86 -54 -9 -47 10 20 49 17 11 32 22
32 26 0 3 12 19 26 34 27 29 41 25 49 -13z m3989 -153 c29 -13 41 -51 26 -79
-11 -20 -23 -24 -69 -22 -42 2 -64 61 -36 92 20 23 43 25 79 9z m-200 -163
c18 -8 54 -13 80 -12 26 1 51 -1 57 -5 11 -6 -20 -89 -33 -89 -5 0 -8 -5 -8
-11 0 -6 -28 -58 -62 -116 l-62 -106 27 -23 c24 -21 36 -44 21 -44 -3 0 -26
12 -52 26 -26 15 -75 42 -109 61 -35 19 -63 41 -63 49 0 16 16 19 25 4 3 -5
18 -10 33 -10 30 0 35 6 90 110 20 36 38 67 42 70 20 15 18 43 -5 66 -23 23
-32 44 -20 44 3 0 21 -6 39 -14z m391 -216 c7 -5 15 -7 18 -3 4 3 7 0 7 -7 0
-7 3 -10 6 -7 7 7 58 -25 87 -55 47 -48 41 -79 -45 -204 -29 -43 -53 -86 -52
-94 2 -30 4 -32 20 -19 13 10 17 10 24 -1 13 -21 -40 -53 -74 -44 -34 8 -66
49 -66 86 0 26 -3 28 -27 23 -61 -11 -158 38 -188 94 -11 22 -11 30 1 53 22
43 67 51 159 30 33 -8 67 -15 75 -17 8 -1 23 -6 33 -10 21 -9 43 7 63 46 24
47 18 73 -20 91 -40 20 -58 18 -85 -6 -21 -19 -49 -23 -90 -12 -52 12 -52 34
1 60 26 14 135 11 153 -4z m-5229 -70 c0 0 13 -11 29 -24 l28 -24 -29 -18
c-16 -11 -33 -22 -39 -27 -5 -4 -35 -24 -66 -45 -30 -20 -68 -47 -84 -60 l-28
-22 24 -26 c57 -62 158 -66 211 -9 38 40 48 54 48 64 0 9 31 31 43 31 12 0
-17 -89 -39 -123 -25 -38 -98 -97 -131 -105 -78 -20 -177 2 -202 45 -6 10 -11
14 -11 8 0 -5 -12 15 -25 46 -30 69 -27 122 10 185 46 79 156 132 230 112 16
-4 30 -8 31 -8z m5603 -196 c28 3 41 0 45 -11 6 -16 -10 -53 -23 -53 -4 0 -8
-6 -8 -14 0 -10 7 -12 29 -5 67 19 131 -45 94 -96 -22 -31 -96 -14 -96 22 0 5
-6 17 -13 28 -13 17 -15 17 -43 1 -17 -10 -40 -32 -52 -50 -12 -18 -31 -42
-43 -55 -11 -12 -27 -34 -34 -48 -12 -23 -11 -28 11 -52 23 -25 32 -51 17 -51
-5 0 -24 14 -43 31 -19 17 -66 56 -104 87 -69 55 -74 74 -14 53 28 -10 33 -9
57 18 38 43 85 101 95 120 5 9 14 19 20 23 7 5 5 16 -6 36 -10 16 -15 31 -12
34 2 3 22 -1 44 -8 22 -8 57 -12 79 -10z m443 -111 c23 -24 28 -64 11 -82 -22
-22 -70 -21 -90 1 -57 63 19 141 79 81z m-6454 -25 c24 -21 70 -70 134 -141
26 -29 28 -29 52 -14 20 14 26 14 35 3 9 -10 6 -17 -11 -29 -13 -8 -52 -43
-87 -78 -64 -62 -86 -66 -59 -12 13 27 12 30 -27 72 -137 151 -153 160 -208
111 -19 -16 -38 -45 -44 -65 -13 -40 -12 -41 104 -164 l51 -56 36 18 c20 9 36
13 36 8 0 -17 -12 -41 -21 -41 -5 0 -39 -29 -75 -65 -61 -59 -94 -79 -94 -56
0 5 7 14 15 21 18 15 19 47 3 64 -7 7 -47 50 -88 96 -41 46 -105 114 -142 152
-66 67 -69 69 -90 54 -26 -18 -48 -21 -48 -5 0 6 13 29 28 52 15 23 34 54 41
70 8 15 18 27 23 27 9 0 80 -71 141 -140 19 -22 40 -40 46 -40 7 0 10 3 7 8
-11 17 51 118 91 148 51 39 109 40 151 2z m6301 -118 c15 0 34 -7 44 -14 16
-13 9 -23 -92 -126 -159 -162 -146 -144 -126 -174 10 -14 15 -32 12 -40 -4 -9
-36 17 -96 76 -50 50 -91 94 -91 99 0 15 20 10 50 -11 l28 -20 88 90 c49 50
89 96 89 103 1 7 -7 23 -17 36 -29 38 -11 43 39 11 26 -17 58 -30 72 -30z
m-6903 -115 c6 -5 25 -21 42 -34 25 -19 29 -27 21 -37 -13 -16 -75 -19 -84 -4
-10 16 -50 -11 -89 -60 -20 -25 -36 -49 -36 -55 1 -5 27 -29 59 -53 32 -24 69
-53 82 -66 13 -12 40 -32 59 -46 19 -13 37 -27 40 -30 12 -15 113 -90 121 -90
4 0 23 13 42 29 22 20 38 27 47 21 12 -7 12 -11 0 -27 -32 -40 -135 -158 -142
-161 -5 -2 -8 -8 -8 -13 0 -16 -55 -88 -67 -89 -17 0 -16 40 0 65 26 38 26 61
-2 87 -46 44 -151 129 -151 123 0 -3 -10 4 -22 15 -13 12 -36 31 -51 43 -15
12 -40 32 -55 44 -37 31 -51 29 -89 -14 -55 -62 -66 -90 -59 -150 4 -33 2 -54
-4 -54 -5 -1 -15 -2 -20 -3 -6 -1 -28 28 -50 63 -41 68 -41 93 3 86 17 -3 33
10 72 62 28 36 56 71 63 78 6 8 12 17 12 21 0 4 6 12 14 18 7 6 48 55 91 109
62 78 78 105 77 129 0 18 2 36 4 40 5 8 52 -20 80 -47z m7077 -119 c83 -10
177 -121 177 -211 0 -36 -33 -115 -49 -115 -4 0 -36 37 -71 83 -35 45 -77 96
-94 113 l-30 31 -28 -35 c-15 -19 -29 -40 -29 -46 -1 -6 -3 -26 -5 -44 -7 -60
48 -136 114 -156 13 -5 22 -15 22 -27 0 -18 -4 -20 -32 -14 -77 17 -160 83
-193 152 -38 79 -16 178 51 231 19 15 37 27 41 28 5 0 15 3 23 7 35 13 46 15
63 10 11 -3 29 -6 40 -7z m350 -388 c41 -28 52 -42 83 -102 37 -71 37 -81 -2
-116 -55 -48 -64 -39 -43 45 13 51 8 82 -18 112 -27 30 -61 38 -83 18 -18 -16
-18 -39 0 -80 27 -61 47 -139 41 -165 -8 -38 -45 -80 -73 -82 -13 0 -30 -2
-38 -3 -44 -4 -118 63 -159 145 -33 68 -33 80 2 119 46 52 73 40 51 -22 -14
-39 -16 -105 -4 -117 3 -3 10 -14 16 -25 6 -10 24 -25 41 -32 27 -10 33 -10
51 8 l21 19 -28 78 c-33 89 -38 117 -27 151 23 69 106 93 169 49z m-4848
-2210 c22 -6 45 -11 50 -13 39 -9 148 -62 202 -97 93 -63 173 -181 189 -279 9
-58 6 -116 -6 -138 -5 -10 -7 -20 -5 -23 10 -10 -35 -40 -60 -40 -34 0 -100
53 -160 129 -27 35 -54 69 -60 76 -17 21 -95 137 -95 142 0 2 -20 38 -45 78
-25 41 -45 79 -45 85 0 6 -3 12 -7 14 -5 2 -18 22 -29 45 l-21 41 26 -4 c14
-3 44 -10 66 -16z"/>
<path d="M5650 9660 c0 -5 -6 -10 -13 -10 -8 0 -25 -21 -39 -47 -31 -58 -31
-131 -1 -171 31 -42 80 -64 126 -58 49 7 48 6 50 50 1 20 5 36 8 36 3 0 6 6 6
13 1 6 4 38 7 70 6 66 -7 96 -50 115 -31 15 -94 16 -94 2z"/>
<path d="M5130 9732 c-29 -17 -51 -55 -40 -71 10 -16 160 -22 166 -6 8 20 -14
63 -38 76 -33 18 -59 18 -88 1z"/>
<path d="M4263 9709 c-25 -9 -52 -46 -58 -79 -4 -22 -3 -22 58 -16 34 3 71 8
82 10 11 3 23 5 28 5 14 2 7 26 -16 53 -24 30 -60 40 -94 27z"/>
<path d="M6588 9527 c-20 -50 -42 -105 -49 -122 -7 -16 -13 -32 -14 -35 -1 -3
-7 -18 -13 -33 -7 -16 -12 -33 -12 -38 0 -5 -4 -9 -10 -9 -5 0 -9 -3 -8 -7 1
-5 -2 -25 -6 -46 -6 -27 -4 -43 7 -61 18 -27 74 -64 103 -69 10 -1 24 -5 29
-8 6 -3 19 -4 30 -3 11 1 33 4 48 5 33 4 99 57 121 97 22 41 37 75 41 95 2 9
6 21 9 26 7 11 9 75 3 112 -12 79 -110 165 -207 183 l-35 6 -37 -93z"/>
<path d="M7358 8766 c-9 -7 -20 -24 -23 -38 -8 -31 24 -58 68 -58 38 0 112 79
87 95 -20 12 -116 13 -132 1z"/>
<path d="M2108 8843 c-32 -20 -46 -49 -42 -87 5 -45 19 -52 53 -25 73 59 86
69 94 69 16 0 6 30 -14 40 -35 19 -63 20 -91 3z"/>
<path d="M8355 8149 c-4 -5 -10 -7 -15 -4 -5 3 -12 1 -15 -5 -7 -11 49 -87 89
-123 20 -18 21 -18 39 4 17 22 21 89 5 89 -4 0 -8 6 -8 14 0 12 -19 21 -72 31
-10 2 -20 -1 -23 -6z"/>
<path d="M6886 7675 c-9 -14 -13 -25 -9 -25 5 0 3 -4 -3 -8 -20 -12 -53 -83
-47 -101 13 -42 28 -61 56 -71 21 -7 34 -7 43 1 8 6 14 8 14 4 0 -14 37 40 42
62 4 14 -6 41 -28 78 -19 31 -34 60 -34 65 0 21 -19 18 -34 -5z"/>
<path d="M7618 7314 c-5 -8 31 -110 67 -189 8 -17 16 -43 19 -59 3 -15 9 -33
14 -39 5 -7 21 -43 35 -82 14 -38 32 -86 40 -105 9 -19 30 -71 48 -115 60
-148 129 -295 138 -295 3 0 16 22 28 48 l23 47 -6 -65 c-3 -36 -8 -78 -10 -95
-12 -87 -11 -130 3 -164 9 -20 22 -49 29 -66 19 -44 42 -118 68 -222 13 -50
26 -95 29 -100 5 -8 11 -42 22 -120 3 -21 8 -48 10 -59 25 -117 26 -439 0
-556 -9 -45 8 -32 47 34 l37 63 -5 -55 c-5 -54 -11 -95 -14 -95 -2 0 -7 -24
-15 -75 -4 -24 -9 -49 -12 -53 -3 -5 -7 -24 -10 -42 -2 -18 -12 -64 -22 -104
-10 -39 -15 -71 -11 -71 14 0 135 102 190 159 129 135 136 147 150 241 6 41
13 89 16 105 3 24 17 310 16 350 0 24 -14 172 -18 195 -2 14 -6 45 -10 70 -8
71 -52 248 -75 305 -8 22 -18 56 -19 67 -2 17 -92 215 -131 286 -23 42 -47 87
-53 99 -6 13 -14 23 -18 23 -5 0 -8 5 -8 11 0 6 -33 58 -72 116 -40 57 -77
112 -83 121 -5 9 -13 19 -16 22 -4 3 -35 41 -70 85 -34 44 -68 85 -73 91 -6 6
-38 42 -71 79 -115 131 -202 218 -207 209z"/>
<path d="M8752 5416 c-6 -15 -12 -31 -12 -35 0 -5 -7 -25 -15 -45 -8 -20 -15
-38 -16 -41 -1 -12 -84 -176 -112 -220 -114 -184 -295 -362 -472 -468 -63 -37
-253 -127 -320 -151 -67 -24 -201 -61 -255 -71 -26 -5 -153 -33 -180 -39 -58
-15 -248 -59 -260 -60 -9 -1 -20 -5 -25 -8 -6 -3 -26 -9 -45 -14 -43 -10 -42
-9 -60 -17 -8 -3 -42 -15 -75 -25 -33 -11 -90 -34 -128 -51 -37 -17 -72 -31
-77 -31 -6 0 -10 -5 -10 -12 0 -6 -3 -9 -6 -5 -17 17 -299 -164 -487 -311 -67
-52 -124 -98 -127 -101 -3 -3 -14 -12 -25 -19 -57 -36 -81 -52 -91 -60 -17
-15 -253 -136 -324 -166 -36 -15 -82 -34 -102 -43 -43 -18 -49 -33 -15 -33 13
0 27 -4 33 -10 5 -5 18 -11 29 -13 11 -2 27 -7 35 -10 55 -23 285 -95 390
-122 40 -10 88 -18 98 -16 6 1 12 -2 12 -6 0 -4 10 -9 23 -9 12 -1 33 -4 47
-7 14 -3 47 -8 73 -12 27 -4 59 -9 70 -11 12 -3 108 -7 214 -9 142 -3 207 0
253 11 34 8 66 12 71 8 5 -3 9 -1 9 3 0 5 11 10 24 11 61 5 285 105 391 174
28 18 63 39 78 47 14 8 35 21 44 30 10 9 47 37 83 62 64 44 106 77 142 112 10
9 20 17 23 17 13 0 336 315 413 403 48 55 35 63 -28 17 -30 -21 -61 -40 -67
-40 -7 0 -13 -4 -13 -9 0 -5 -13 -14 -30 -21 -16 -7 -30 -17 -30 -22 0 -5 -4
-7 -9 -3 -5 3 -12 1 -16 -4 -6 -10 -10 -12 -140 -78 -130 -66 -287 -133 -312
-133 -7 0 -13 -4 -13 -10 0 -5 -8 -10 -17 -10 -10 0 -43 -9 -73 -21 -77 -29
-372 -113 -450 -128 -36 -7 -72 -15 -80 -18 -8 -3 -22 -7 -30 -8 -23 -3 -82
-14 -110 -20 -14 -3 -38 -8 -55 -10 -16 -3 -37 -8 -45 -10 -21 -6 -63 -13
-145 -26 -118 -17 -125 -18 -125 -8 0 5 8 9 18 10 9 0 24 2 32 4 8 2 42 8 75
14 56 10 72 13 128 27 12 3 29 7 37 9 8 2 15 4 15 5 0 1 14 3 30 5 17 2 55 11
85 20 70 19 77 21 125 33 84 20 364 107 415 129 8 3 18 7 23 8 4 2 9 4 12 5 3
1 8 3 13 5 11 3 45 16 67 26 11 4 45 18 75 29 70 27 191 83 299 138 83 43 331
189 341 201 3 3 32 26 65 51 112 83 155 124 201 192 16 24 31 45 34 48 3 3 12
19 20 35 8 17 18 32 22 35 17 13 197 352 204 385 1 6 18 49 37 97 34 84 77
220 83 263 1 11 6 31 12 45 5 14 10 27 10 30 0 3 3 21 7 42 4 20 5 44 3 54 -2
14 -6 12 -16 -10z"/>
</g>
</svg>
